<?xml version="1.0" standalone="no"?>
<!DOCTYPE svg PUBLIC "-//W3C//DTD SVG 20010904//EN"
 "http://www.w3.org/TR/2001/REC-SVG-20010904/DTD/svg10.dtd">
<svg version="1.0" xmlns="http://www.w3.org/2000/svg"
 width="700.000000pt" height="700.000000pt" viewBox="0 0 700.000000 700.000000"
 preserveAspectRatio="xMidYMid meet">
<metadata>
Created by potrace 1.11, written by Peter Selinger 2001-2013
</metadata>
<g transform="translate(0.000000,700.000000) scale(0.100000,-0.100000)"
fill="#000000" stroke="none">
<path d="M2964 5962 c-34 -2 -43 -7 -47 -25 -5 -21 -76 -221 -118 -332 -10
-27 -48 -131 -83 -230 -35 -99 -119 -332 -186 -519 l-121 -338 152 -202 c84
-110 201 -264 259 -341 58 -77 142 -187 185 -244 l79 -105 17 50 c9 27 40 117
69 199 28 83 55 159 60 170 4 11 15 40 23 65 8 25 29 83 46 130 16 47 60 171
96 275 36 105 75 216 87 249 l21 59 18 -54 c10 -30 45 -135 79 -234 34 -99 97
-283 140 -410 43 -126 115 -338 160 -470 45 -132 113 -330 150 -440 38 -110
139 -407 225 -660 188 -551 214 -628 230 -680 l13 -41 -194 1 -193 0 -196 261
-195 262 14 53 c24 94 5 168 -59 232 -47 48 -97 67 -171 67 l-49 0 -115 153
c-63 83 -117 154 -120 157 -3 3 -39 50 -80 105 -41 55 -78 105 -83 110 -15 19
-340 447 -622 820 -88 116 -163 215 -167 220 -23 29 -119 154 -248 326 -339
448 -343 453 -382 463 -45 11 -90 -5 -114 -41 -17 -26 -22 -83 -9 -104 8 -12
400 -533 422 -559 6 -8 57 -76 113 -150 55 -74 106 -142 113 -150 6 -9 39 -51
72 -95 32 -44 63 -84 67 -90 4 -5 18 -23 31 -40 13 -16 113 -149 223 -295 109
-146 202 -269 206 -275 5 -5 18 -23 31 -40 12 -16 128 -170 258 -342 l237
-313 -12 -43 c-41 -142 64 -284 216 -291 l48 -2 150 -199 c83 -109 150 -200
150 -204 0 -5 -1355 -7 -1382 -2 -4 0 2 27 13 59 11 31 88 255 170 496 l148
439 -71 96 c-39 53 -74 98 -77 101 -3 3 -60 77 -126 165 -65 88 -131 174 -145
191 -14 17 -32 41 -40 54 -8 12 -20 28 -25 34 -6 6 -50 64 -99 129 -48 64 -91
117 -95 117 -4 0 -29 -60 -55 -132 -26 -73 -79 -221 -118 -328 -39 -107 -90
-249 -113 -315 -24 -66 -98 -273 -165 -460 -67 -187 -154 -428 -192 -535 -39
-107 -90 -251 -115 -320 -25 -69 -67 -186 -93 -260 -27 -74 -62 -173 -79 -219
-17 -46 -31 -88 -31 -93 0 -4 1048 -8 2330 -8 1282 0 2330 3 2330 8 0 4 -25
77 -56 162 -31 85 -60 166 -64 180 -5 14 -26 75 -48 135 -22 61 -56 157 -77
215 -20 58 -40 114 -45 125 -5 11 -45 124 -90 250 -114 322 -178 502 -200 560
-22 59 -101 280 -310 865 -83 234 -170 475 -192 535 -22 61 -41 115 -42 120
-2 6 -8 21 -13 35 -6 14 -29 77 -51 140 -22 63 -60 171 -85 240 -25 69 -104
292 -176 495 -73 204 -138 386 -146 405 -7 19 -25 69 -40 110 -15 41 -34 93
-42 115 -8 22 -23 65 -33 95 -10 30 -25 73 -34 95 l-16 40 -533 0 c-292 0
-551 -1 -573 -3z"/>
</g>
</svg>
