<svg viewBox="0 0 215 114" fill="none" xmlns="http://www.w3.org/2000/svg">
<g id="undraw_community_8nwl 1" clip-path="url(#clip0)">
<path id="Vector" opacity="0.1" d="M9.42958 16.262C9.77629 18.451 10.6623 20.5652 10.67 22.7791C10.6989 30.013 1.87897 34.4561 0.528721 41.5635C-0.272568 45.7804 1.80385 50.0894 4.73164 53.2348C7.65942 56.3802 11.3923 58.6478 14.8306 61.2354C24.3435 68.4082 31.6762 78.0608 36.0166 89.1246C36.8853 91.3481 37.6326 93.6405 37.8792 96.0135C38.0583 97.7386 37.9736 99.504 38.38 101.189C39.9883 107.876 48.1438 110.472 55.0395 110.905C66.1456 111.591 77.2624 109.744 87.5418 105.503C89.8532 104.545 92.2397 103.456 94.7206 103.727C96.7046 103.943 98.4747 105.011 100.216 105.983C105.344 108.847 110.801 111.082 116.469 112.642C119.609 113.504 122.904 114.16 126.112 113.6C135.742 111.909 140.86 100.286 150.31 97.7444C156.847 95.9867 163.651 99.0574 169.514 102.429C175.377 105.801 181.429 109.684 188.198 109.694C197.228 109.705 204.651 102.904 210.777 96.3029C212.061 94.9171 213.367 93.468 213.98 91.6835C215.222 88.0608 213.209 83.9915 210.233 81.5572C207.257 79.1228 203.505 77.9153 199.921 76.5237C193.845 74.1648 188.047 71.1516 182.629 67.5378C179.124 65.1993 175.728 62.5542 173.33 59.104C171.267 56.1291 170.028 52.6808 168.645 49.338C165.614 42.0178 161.326 34.5788 154.166 31.1439C148.32 28.3377 141.531 28.6521 135.041 28.5773C125.48 28.4719 115.675 27.3276 107.198 22.9267C100.039 19.21 94.1582 13.3428 86.8926 9.82929C75.3356 4.24571 62.124 5.34019 49.6712 5.55104C43.6866 5.65263 36.5732 6.24683 30.8255 4.29555C26.5745 2.85221 24.3863 -0.0977135 19.5035 1.09069C12.8254 2.71037 8.36248 9.50919 9.42958 16.262Z" fill="#017DB3"/>
<path id="Vector_2" d="M186.488 68.9511C186.185 67.9549 186.217 66.8878 186.578 65.9111C187.156 64.4237 188.564 63.3503 189.059 61.8303C189.98 59.0069 187.499 56.3636 185.977 53.8047C184.581 51.4305 183.949 48.6882 184.165 45.9459C184.401 43.0018 185.613 40.186 185.705 37.2342C185.788 34.4836 184.893 31.8078 184.009 29.2009C183.278 27.0465 182.535 24.8671 181.3 22.9542C178.966 19.3372 174.819 17.0639 170.554 16.6882C168.541 16.5099 166.573 17.1616 164.595 16.9067C161.848 16.554 159.251 15.8448 156.451 15.7566C153.791 15.6781 150.849 16.0135 149.037 17.9533C147.652 19.4388 147.209 21.5837 145.942 23.1708C144.142 25.423 140.997 26.1954 139.007 28.2809C138.148 29.2026 137.544 30.3312 137.256 31.5556C136.968 32.78 137.005 34.058 137.364 35.2637C137.64 36.1531 138.09 36.9792 138.383 37.8629C139.614 41.5546 137.998 45.5032 137.021 49.2677C136.911 49.5753 136.891 49.9076 136.964 50.2261C137.118 50.6861 137.603 50.9277 138.006 51.1998C139.323 52.0931 139.995 53.7108 140.124 55.2922C140.254 56.8735 139.886 58.4491 139.523 59.994C138.601 63.9215 137.447 68.1288 134.406 70.7414C133.853 69.4308 133.2 68.1646 132.452 66.9539C130.592 63.9522 129.215 60.2451 129.191 56.6972C129.19 56.6863 129.19 56.6754 129.191 56.6646C129.191 56.4729 129.201 56.2812 129.213 56.0895C129.453 51.9033 131.272 47.8646 131.231 43.6976C131.231 43.3602 131.222 43.0222 131.202 42.6836C130.965 39.1164 129.243 35.8177 127.269 32.8313C125.796 30.6021 124.135 28.4496 122.009 26.826C118.721 24.3361 114.543 23.2551 110.438 22.6839C106.334 22.1127 102.599 21.576 98.4613 21.3C94.0118 21.0029 89.1155 20.8361 85.5983 23.5618C81.0121 27.1155 80.7578 33.9795 77.2618 38.5989C75.1815 41.3476 71.8685 43.4714 70.7725 46.5938C70.476 45.8276 70.229 45.0433 70.0329 44.2458C70.0213 44.1921 70.0098 44.1403 69.9982 44.0867C71.32 40.3191 71.6275 36.2728 70.89 32.3502C70.977 31.7149 71.0214 31.0746 71.0229 30.4334C71.0444 29.7357 70.9686 29.0384 70.7976 28.3614C70.3025 26.4944 68.9369 25.0013 67.6174 23.5848C67.1371 23.044 66.6155 22.5409 66.0572 22.0801C62.6043 17.9171 57.7767 15.1111 52.4366 14.1632C47.0965 13.2153 41.5918 14.1874 36.9054 16.9057C32.219 19.624 28.6563 23.9115 26.8535 29.0026C25.0507 34.0937 25.1252 39.6567 27.0637 44.6981C26.8942 46.0054 26.3857 47.2762 25.4515 48.1982C25.0259 48.6179 24.475 49.1431 24.5674 49.6798C24.5387 49.8327 24.5604 49.9906 24.6291 50.1303C24.7237 50.2976 24.8555 50.4411 25.0143 50.5501C26.3618 51.5748 28.0401 52.0726 29.7315 51.9493C31.1588 56.1237 33.957 59.6982 37.6751 62.0967C37.6751 62.2245 37.6706 62.3485 37.6616 62.4686C37.6616 62.6814 37.6442 62.8922 37.6346 63.1069C37.6346 63.1548 37.6346 63.2027 37.6346 63.2506C37.6346 63.2334 37.6346 63.2142 37.6346 63.1951C37.6346 63.1759 30.9277 71.8953 24.7292 72.2193C21.4201 72.3918 18.5327 74.6133 16.3446 77.153C13.7173 80.2007 12.0954 83.7046 11.9568 84.6745C11.7006 86.4533 9.91309 95.098 9.91309 95.098H61.4075C60.7988 98.2108 59.9782 102.177 59.9782 102.177H143.341C143.149 99.5104 142.935 97.0454 142.736 94.958H153.217L153.205 95.0213H201.552L204.619 90.4421C203.858 77.0994 195.949 69.7639 186.488 68.9511ZM66.1208 54.0463C67.2084 54.6286 68.3769 55.0472 69.5879 55.2883C70.1138 55.3957 70.7012 55.4628 71.15 55.1695C71.4475 54.9459 71.6676 54.6357 71.7799 54.282L71.803 54.3395C73.1032 57.5981 74.3071 60.9601 74.5401 64.4601C74.5613 64.7898 74.5748 65.1195 74.5767 65.4511C74.5819 67.4476 74.168 69.4232 73.3613 71.2513C69.0064 68.9723 64.8066 66.4111 60.7892 63.5842L60.5176 63.4692C60.5176 63.4902 60.6119 63.7298 60.7237 64.1343C60.7506 64.232 60.7795 64.3394 60.8084 64.4544C60.533 63.5688 60.2826 62.6641 60.063 61.7421C60.0379 61.6329 60.0129 61.5236 59.9879 61.4144C62.6109 59.4986 64.7176 56.9675 66.1208 54.0463Z" fill="url(#paint0_linear)"/>
<path id="Vector_3" d="M155.678 16.4352C153.061 16.3566 150.164 16.6883 148.382 18.5974C147.018 20.058 146.583 22.1702 145.335 23.7324C143.565 25.9501 140.469 26.7092 138.508 28.7621C137.662 29.6693 137.068 30.7802 136.784 31.9855C136.5 33.1907 136.537 34.4488 136.89 35.6356C137.162 36.5097 137.605 37.3243 137.894 38.1926C139.105 41.8345 137.524 45.7121 136.546 49.4173C136.436 49.7211 136.417 50.0497 136.49 50.3642C136.64 50.8165 137.12 51.0542 137.514 51.3226C138.811 52.2024 139.473 53.7933 139.591 55.3478C139.708 56.9023 139.356 58.4549 139 59.9749C138.054 64.0001 136.86 68.334 133.575 70.8699C132.189 71.9529 130.336 72.8308 129.973 74.5559C129.55 76.5761 131.487 78.2936 133.346 79.2079C138.803 81.8914 145.138 81.9297 151.107 83.1258C156.364 84.18 161.607 86.1773 166.927 85.4949C169.298 85.1921 171.565 84.3621 173.809 83.5398L187.782 78.4163C188.177 78.2962 188.548 78.1102 188.88 77.8661C189.721 77.1684 189.75 75.842 189.292 74.851C188.834 73.8601 188.001 73.101 187.269 72.2883C185.675 70.5114 184.461 68.0024 185.332 65.7828C185.91 64.3183 187.287 63.2622 187.774 61.7575C188.679 58.9782 186.233 56.3752 184.75 53.8565C183.378 51.5222 182.756 48.8262 182.966 46.13C183.199 43.2318 184.392 40.4602 184.478 37.5543C184.559 34.8478 183.679 32.2142 182.808 29.6476C182.09 27.5276 181.358 25.3828 180.143 23.4986C177.845 19.9391 173.763 17.7022 169.564 17.3304C167.582 17.1559 165.646 17.7962 163.699 17.547C160.993 17.2154 158.435 16.5177 155.678 16.4352Z" fill="#F7D6C8"/>
<path id="Vector_4" d="M159.587 92.4946C159.587 92.4946 143.746 82.6117 149.906 71.2184C151.331 68.5847 151.961 66.0929 152.09 63.8177C152.124 63.2182 152.124 62.6173 152.09 62.0178C152.09 61.9891 152.09 61.9603 152.09 61.9316C152.069 61.6223 152.042 61.3182 152.007 61.0192C151.273 55.0043 147.39 51.0845 147.39 51.0845C147.39 51.0845 173.665 43.4538 169.266 50.3331C167.224 53.5265 167.835 56.6585 169.202 59.8998C169.347 60.241 169.501 60.586 169.661 60.9291C171.24 64.3467 173.432 67.887 174.045 71.7263C175.3 79.6081 159.587 92.4946 159.587 92.4946Z" fill="#EFB7B9"/>
<path id="Vector_5" opacity="0.1" d="M169.266 50.3335C167.224 53.5268 167.835 56.6589 169.202 59.9001C166.667 61.5265 163.758 62.4833 160.748 62.6805C157.739 62.8777 154.729 62.3087 152.001 61.0272C151.273 55.0047 147.39 51.0849 147.39 51.0849C147.39 51.0849 173.667 43.4522 169.266 50.3335Z" fill="black"/>
<path id="Vector_6" d="M159.585 62.3437C169.375 62.3437 177.311 54.446 177.311 44.7036C177.311 34.9612 169.375 27.0635 159.585 27.0635C149.794 27.0635 141.858 34.9612 141.858 44.7036C141.858 54.446 149.794 62.3437 159.585 62.3437Z" fill="#EFB7B9"/>
<path id="Vector_7" opacity="0.1" d="M152.09 62.0256C152.09 61.9968 152.09 61.968 152.09 61.9393L152.111 61.9048C152.099 61.947 152.092 61.9872 152.09 62.0256Z" fill="black"/>
<path id="Vector_8" opacity="0.1" d="M159.586 92.4951C159.586 92.4951 143.745 82.6122 149.905 71.2188C151.331 68.5852 151.961 66.0934 152.09 63.8181C152.45 66.632 154.401 70.1301 157.953 74.9719C159.494 77.0803 160.156 80.0283 160.366 82.9744L160.719 83.2294L162.452 82.1866C162.645 78.9281 163.308 75.6351 164.876 73.3005C168.996 67.1668 169.974 64.0999 169.67 60.9219C171.249 64.3395 173.441 67.8798 174.054 71.7191C175.3 79.6086 159.586 92.4951 159.586 92.4951Z" fill="black"/>
<path id="Vector_9" d="M184.981 68.7555C175.543 68.0732 169.572 60.7817 169.572 60.7817C170.074 64.1974 169.258 67.2547 164.856 73.8158C163.298 76.1428 162.637 79.4301 162.445 82.6963L160.711 83.739L160.359 83.4841C160.149 80.5399 159.488 77.5881 157.945 75.4815C153.546 69.4763 151.589 65.5354 152.099 62.4072C152.099 62.4072 147.259 70.2257 137.83 70.8525C128.402 71.4793 120.481 78.1094 119.724 90.2446L122.741 94.3733H152.494L152.483 94.4366H200.059L203.087 89.9264C202.33 76.6776 194.419 69.4379 184.981 68.7555Z" fill="#017DB3"/>
<path id="Vector_10" opacity="0.05" d="M184.981 68.7555C175.543 68.0732 169.572 60.7817 169.572 60.7817C170.074 64.1974 169.258 67.2547 164.856 73.8158C163.298 76.1428 162.637 79.4301 162.445 82.6963L160.711 83.739L160.359 83.4841C160.149 80.5399 159.488 77.5881 157.945 75.4815C153.546 69.4763 151.589 65.5354 152.099 62.4072C152.099 62.4072 147.259 70.2257 137.83 70.8525C128.402 71.4793 120.481 78.1094 119.724 90.2446L122.741 94.3733H152.494L152.483 94.4366H200.059L203.087 89.9264C202.33 76.6776 194.419 69.4379 184.981 68.7555Z" fill="black"/>
<path id="Vector_11" opacity="0.1" d="M171.569 36.1778C170.799 38.0755 169.431 39.6779 167.937 41.0848C165.872 43.0303 163.275 44.7439 160.436 44.6117C161.984 43.1768 163.104 41.3449 163.674 39.3175C161.883 40.3564 160.529 42.001 158.818 43.1722C157.108 44.3433 154.69 44.9471 153.018 43.7242C156.055 42.205 158.578 39.8333 160.274 36.9024C156.214 37.9509 154.13 42.5013 150.472 44.5446C148.758 45.503 146.753 45.8633 144.788 45.8212C143.391 45.7924 141.835 45.4685 141.057 44.3146C140.602 43.6437 140.496 42.8003 140.479 41.9895C140.394 38.3131 141.899 34.7058 144.216 31.844C146.533 28.9823 149.609 26.8067 152.899 25.118C154.07 24.5161 155.291 23.9679 156.595 23.7763C158.217 23.5424 159.87 23.8855 161.461 24.2497C163.53 24.7212 165.61 25.2388 167.515 26.1665C171.581 28.1695 173.357 31.7999 171.569 36.1778Z" fill="black"/>
<path id="Vector_12" d="M171.569 35.9269C170.799 37.8245 169.431 39.4269 167.937 40.8338C165.872 42.7794 163.275 44.493 160.436 44.3607C161.984 42.9258 163.104 41.0939 163.674 39.0666C161.883 40.1055 160.529 41.75 158.818 42.9212C157.108 44.0924 154.69 44.6961 153.018 43.4732C156.055 41.954 158.578 39.5823 160.274 36.6514C156.214 37.6999 154.13 42.2503 150.472 44.2936C148.758 45.252 146.753 45.6124 144.788 45.5702C143.391 45.5414 141.835 45.2175 141.057 44.0636C140.602 43.3927 140.496 42.5494 140.479 41.7386C140.394 38.0622 141.899 34.4548 144.216 31.593C146.533 28.7313 149.609 26.5557 152.899 24.867C154.07 24.2652 155.291 23.717 156.595 23.5253C158.217 23.2914 159.87 23.6346 161.461 23.9987C163.53 24.4703 165.61 24.9878 167.515 25.9155C171.581 27.9147 173.357 31.5489 171.569 35.9269Z" fill="#F7D6C8"/>
<path id="Vector_13" d="M49.3419 59.2924C61.7702 59.2924 71.8454 49.2664 71.8454 36.8986C71.8454 24.5309 61.7702 14.5049 49.3419 14.5049C36.9135 14.5049 26.8384 24.5309 26.8384 36.8986C26.8384 49.2664 36.9135 59.2924 49.3419 59.2924Z" fill="#C3705A"/>
<path id="Vector_14" d="M69.5208 79.9976C69.5208 79.9976 48.9107 85.2515 48.4002 85.748C47.8898 86.2444 31.0512 87.1242 35.9533 76.8656C37.7543 73.0991 38.5035 67.9832 38.7308 63.0169C38.7405 62.806 38.7501 62.5971 38.7578 62.3882C39.0679 54.0636 37.9661 46.339 37.9661 46.339C37.9661 46.339 61.8507 36.9467 60.0921 51.2191C59.653 54.769 60.017 58.3361 60.8144 61.6905C61.0803 62.8099 61.3923 63.9043 61.739 64.9662C64.5281 73.5227 69.5208 79.9976 69.5208 79.9976Z" fill="#ECB4B6"/>
<path id="Vector_15" opacity="0.1" d="M60.8121 61.6944C57.6443 64.0316 53.835 65.3508 49.8935 65.4755C45.9519 65.6001 42.0661 64.5244 38.7555 62.3921C39.0656 54.0675 37.9639 46.3429 37.9639 46.3429C37.9639 46.3429 61.8484 36.9506 60.0898 51.223C59.6526 54.7748 60.0166 58.3419 60.8121 61.6944Z" fill="black"/>
<path id="Vector_16" d="M49.2784 65.1078C59.9707 65.1078 68.6384 56.4823 68.6384 45.8422C68.6384 35.2021 59.9707 26.5767 49.2784 26.5767C38.5862 26.5767 29.9185 35.2021 29.9185 45.8422C29.9185 56.4823 38.5862 65.1078 49.2784 65.1078Z" fill="#ECB4B6"/>
<path id="Vector_17" opacity="0.1" d="M69.5208 79.9974C69.5208 79.9974 48.9107 85.2513 48.4002 85.7477C47.8898 86.2442 31.0512 87.124 35.9533 76.8653C37.7543 73.0989 38.5035 67.983 38.7308 63.0166C38.9235 65.6119 40.4143 71.897 40.605 73.9883C40.6171 74.1105 40.6417 74.2313 40.6782 74.3486C40.9575 75.2782 41.9533 76.3497 43.1533 77.3656L43.2246 77.425C44.7173 78.671 46.5695 79.4121 48.5134 79.5414C50.4574 79.6706 52.3922 79.1811 54.0382 78.1438C55.7513 77.0698 57.3956 75.8906 58.9615 74.6131C61.2035 72.7711 61.9027 70.2889 61.9894 68.0961C62.0253 67.0435 61.9413 65.9902 61.739 64.9564C64.5281 73.5225 69.5208 79.9974 69.5208 79.9974Z" fill="black"/>
<path id="Vector_18" d="M95.5453 94.5115H11.4331C11.4331 94.5115 13.1936 86.0048 13.444 84.2529C13.5808 83.2945 15.1776 79.8443 17.7644 76.8484C19.9179 74.3566 22.759 72.1618 26.0162 71.9912C32.1125 71.6731 38.7135 63.1089 38.7135 63.1089C38.8599 65.6007 40.4047 72.1082 40.5993 74.2435C40.6114 74.3657 40.6359 74.4865 40.6724 74.6038C40.9517 75.5335 41.9476 76.6049 43.1476 77.6208L43.2188 77.6803C44.7112 78.9268 46.5633 79.6684 48.5073 79.798C50.4513 79.9276 52.3864 79.4383 54.0324 78.401C55.7453 77.3265 57.3895 76.1473 58.9557 74.8703C61.1978 73.0282 61.897 70.546 61.9836 68.3532C62.0278 66.8981 61.8505 65.4447 61.4578 64.0424C61.348 63.6437 61.2652 63.4098 61.2536 63.3887L61.5214 63.5018C61.5214 63.5018 72.9108 71.744 83.3449 75.1137C84.5677 75.5099 85.7217 76.0918 86.7658 76.8388C87.6116 77.4472 88.3902 78.1431 89.0888 78.9147C90.5011 80.5041 91.6695 82.2926 92.5559 84.2222C94.9752 89.3247 95.5453 94.5115 95.5453 94.5115Z" fill="#017DB3"/>
<path id="Vector_19" opacity="0.05" d="M95.5453 94.5115H11.4331C11.4331 94.5115 13.1936 86.0048 13.444 84.2529C13.5808 83.2945 15.1776 79.8443 17.7644 76.8484C19.9179 74.3566 22.759 72.1618 26.0162 71.9912C32.1125 71.6731 38.7135 63.1089 38.7135 63.1089C38.8599 65.6007 40.4047 72.1082 40.5993 74.2435C40.6114 74.3657 40.6359 74.4865 40.6724 74.6038C40.9517 75.5335 41.9476 76.6049 43.1476 77.6208L43.2188 77.6803C44.7112 78.9268 46.5633 79.6684 48.5073 79.798C50.4513 79.9276 52.3864 79.4383 54.0324 78.401C55.7453 77.3265 57.3895 76.1473 58.9557 74.8703C61.1978 73.0282 61.897 70.546 61.9836 68.3532C62.0278 66.8981 61.8505 65.4447 61.4578 64.0424C61.348 63.6437 61.2652 63.4098 61.2536 63.3887L61.5214 63.5018C61.5214 63.5018 72.9108 71.744 83.3449 75.1137C84.5677 75.5099 85.7217 76.0918 86.7658 76.8388C87.6116 77.4472 88.3902 78.1431 89.0888 78.9147C90.5011 80.5041 91.6695 82.2926 92.5559 84.2222C94.9752 89.3247 95.5453 94.5115 95.5453 94.5115Z" fill="black"/>
<path id="Vector_20" opacity="0.1" d="M58.5859 39.373C59.0867 41.2897 59.7416 43.4193 61.4617 44.4179C61.6922 44.5279 61.9045 44.672 62.0915 44.8454C62.5153 45.3035 62.3862 46.0184 62.3227 46.6395C62.1031 48.7709 63.0238 50.9311 64.5339 52.4588C66.0441 53.9865 68.0877 54.92 70.1969 55.3493C70.7131 55.4547 71.2929 55.5218 71.7378 55.2324C72.0385 55.005 72.2596 54.6891 72.3696 54.3296C72.9571 52.7751 72.7086 51.0289 72.2174 49.4418C71.7263 47.8547 71.002 46.3404 70.6303 44.7208C69.7462 40.8776 70.9173 36.9061 71.445 32.9977C71.6203 31.6982 71.7224 30.3583 71.3853 29.0913C70.898 27.2551 69.5535 25.783 68.2553 24.3895C67.5561 23.64 66.8415 22.8771 65.9439 22.3864C63.2973 20.9469 59.8899 22.2254 57.0642 21.1769C55.9336 20.7572 54.9724 19.9905 53.8957 19.4518C51.6093 18.3018 48.8992 18.2385 46.3932 18.7618C43.8873 19.2851 41.5392 20.3604 39.2144 21.4261L37.4365 22.2273C34.9325 23.3774 32.2493 24.677 30.901 27.0825C29.466 29.6434 29.8647 32.9211 28.4297 35.4819C27.9944 36.2486 27.3876 36.9846 27.274 37.8664C27.1969 38.5027 27.3934 39.1391 27.5764 39.7544C28.0233 41.2514 28.4124 42.7906 28.3777 44.3547C28.343 45.9188 27.8422 47.5212 26.7289 48.6214C26.2589 49.0853 25.631 49.6795 25.9199 50.2718C26.0147 50.4374 26.1465 50.579 26.3051 50.6858C27.2195 51.3768 28.2943 51.8269 29.4301 51.9945C30.5658 52.162 31.7256 52.0415 32.8021 51.6442C33.6458 51.3241 34.4432 50.8104 34.9209 50.0533C35.2385 49.4986 35.4684 48.8987 35.6028 48.2745C36.2114 46.0184 36.824 43.724 36.7758 41.3875C36.7489 40.0457 36.5023 38.6925 36.6988 37.3622C36.8952 36.032 37.6753 34.6615 38.9755 34.2954C39.9386 34.0213 40.9691 34.3529 41.9746 34.3433C43.423 34.3318 45.199 32.7332 46.5415 33.2028C47.6972 33.6092 48.6122 35.8097 49.5676 36.653C51.9907 38.8056 55.373 39.9307 58.5859 39.373Z" fill="black"/>
<path id="Vector_21" d="M58.5856 39.1218C59.0864 41.0386 59.7413 43.1681 61.4614 44.1668C61.6885 44.2744 61.8982 44.4153 62.0835 44.5846C62.5073 45.0427 62.3783 45.7577 62.3147 46.3787C62.0951 48.5102 63.0158 50.6704 64.5259 52.1981C66.0361 53.7257 68.0797 54.6592 70.1889 55.0886C70.7051 55.194 71.2849 55.2611 71.7298 54.9717C72.0305 54.7443 72.2516 54.4284 72.3616 54.0689C72.9491 52.5143 72.7006 50.7682 72.2095 49.1811C71.7183 47.594 70.994 46.0797 70.6223 44.46C69.7382 40.6169 70.9093 36.6453 71.4371 32.737C71.6123 31.4374 71.7144 30.0976 71.3773 28.8306C70.89 26.9943 69.5456 25.5222 68.2473 24.1287C67.5481 23.3793 66.8335 22.6164 65.9359 22.1257C63.2893 20.6862 59.8819 21.9647 57.0562 20.9162C55.9256 20.4964 54.9644 19.7297 53.8877 19.1911C51.6013 18.041 48.8912 17.9778 46.3852 18.5011C43.8793 19.0243 41.5313 20.0997 39.2064 21.1654L37.4516 21.9704C34.9476 23.1205 32.2644 24.4201 30.9161 26.8256C29.4811 29.3865 29.8798 32.6642 28.4448 35.225C28.0095 35.9917 27.4028 36.7277 27.2891 37.6095C27.2121 38.2458 27.4086 38.8822 27.5915 39.4975C28.0384 40.9945 28.4275 42.5337 28.3928 44.0978C28.3582 45.6619 27.8574 47.2643 26.744 48.3645C26.274 48.8284 25.6461 49.4226 25.935 50.0149C26.0298 50.1805 26.1616 50.3221 26.3203 50.4289C27.2346 51.1199 28.3095 51.57 29.4452 51.7376C30.5809 51.9051 31.7408 51.7846 32.8173 51.3873C33.6609 51.0672 34.4584 50.5535 34.936 49.7964C35.2536 49.2417 35.4836 48.6418 35.6179 48.0176C36.2266 45.7615 36.8391 43.4671 36.7909 41.1306C36.764 39.7888 36.5174 38.4356 36.7139 37.1053C36.9104 35.7751 37.6905 34.4046 38.9906 34.0385C39.9537 33.7644 40.9842 34.096 41.9897 34.0864C43.4382 34.0749 45.2141 32.4763 46.5567 32.9459C47.7124 33.3523 48.6273 35.5528 49.5827 36.3961C51.9904 38.5564 55.3728 39.6815 58.5856 39.1218Z" fill="#C3705A"/>
<path id="Vector_22" d="M123.078 47.3047H78.9492V84.9618H123.078V47.3047Z" fill="#463A3E"/>
<path id="Vector_23" opacity="0.05" d="M123.078 47.3047H78.9492V84.9618H123.078V47.3047Z" fill="black"/>
<path id="Vector_24" d="M116.751 101.477H78.9976C79.4849 98.7416 80.9103 95.7437 83.6878 92.512C85.8809 89.9715 87.6746 87.1151 89.0079 84.0399C89.3662 83.2182 89.6872 82.3946 89.971 81.5691C90.8053 79.118 91.3729 76.5848 91.6641 74.0132C91.6641 73.9403 91.6814 73.8675 91.6891 73.7947C91.8838 72.0177 91.9623 70.2301 91.9241 68.443C91.9241 68.3146 91.9241 68.19 91.9241 68.0597C91.7892 63.6746 91.0603 59.3278 89.7572 55.1367L89.709 54.9872C89.2988 53.7011 88.9983 52.9784 88.9983 52.9784C88.9983 52.9784 89.7476 52.574 90.9842 51.9779L91.0882 51.928C95.6359 49.7544 106.401 45.2193 111.147 48.451L111.224 48.5027C112.885 49.6796 113.779 51.8399 113.359 55.4377C113.359 55.4511 113.359 55.4664 113.359 55.4798C113.359 55.5469 113.343 55.6121 113.337 55.6715C113.083 58.1513 112.963 60.6429 112.977 63.1355C112.977 63.26 112.977 63.3846 112.977 63.5188C112.977 64.1028 112.984 64.6944 112.997 65.2937C112.997 65.3743 112.997 65.4548 112.997 65.5353C113.035 67.4712 113.122 69.4704 113.243 71.4984C113.411 74.3103 113.649 77.174 113.925 79.984C114.042 81.1858 114.17 82.3799 114.31 83.5549C114.326 83.6929 114.341 83.8348 114.356 83.9709C114.518 85.4027 114.686 86.8058 114.857 88.1667L114.869 88.2549C115.524 93.6602 116.248 98.3793 116.751 101.477Z" fill="#C17174"/>
<path id="Vector_25" opacity="0.1" d="M113.343 55.4453C113.343 55.4587 113.343 55.474 113.343 55.4874C113.071 58.034 112.943 60.5937 112.958 63.1545C112.958 63.2791 112.958 63.4037 112.958 63.5379C110.423 66.4658 107.021 68.5192 103.24 69.4036C99.4594 70.2879 95.4944 69.9577 91.9141 68.4602C91.9141 68.3318 91.9141 68.2072 91.9141 68.0768C91.7784 63.6392 91.0331 59.2409 89.699 55.0044C89.2888 53.7182 88.9883 52.9956 88.9883 52.9956C88.9883 52.9956 89.7376 52.5912 90.9742 51.995C95.4776 49.8291 106.466 45.1521 111.209 48.5103C112.867 49.6872 113.761 51.8475 113.343 55.4453Z" fill="black"/>
<path id="Vector_26" d="M99.0429 69.499C109.183 69.499 117.403 61.3189 117.403 51.2283C117.403 41.1376 109.183 32.9575 99.0429 32.9575C88.9028 32.9575 80.6826 41.1376 80.6826 51.2283C80.6826 61.3189 88.9028 69.499 99.0429 69.499Z" fill="#C17174"/>
<path id="Vector_27" opacity="0.1" d="M100.016 101.352H60.8472C60.8472 101.352 62.6077 92.8454 62.8581 91.0934C62.9949 90.135 64.5917 86.6848 67.1785 83.6889C70.5011 81.0513 74.6164 79.5983 78.8665 79.5621C86.3574 79.4509 88.5378 82.0175 89.1292 83.9151C89.3358 84.5513 89.3886 85.2271 89.2833 85.8875L90.701 87.9308L100.016 101.352Z" fill="black"/>
<path id="Vector_28" d="M99.8905 101.477H60.7217C60.7217 101.477 62.4822 92.9704 62.7326 91.2184C62.8694 90.2601 64.4662 86.8098 67.053 83.8139C70.3756 81.1763 74.4909 79.7233 78.741 79.6871C86.2319 79.5759 88.4124 82.1425 89.0037 84.0401C89.2103 84.6763 89.2631 85.3521 89.1578 86.0125L90.5755 88.0558L99.8905 101.477Z" fill="#017DB3"/>
<path id="Vector_29" opacity="0.1" d="M142.647 101.352H101.608C103.565 97.2081 108.695 86.1598 108.98 83.6047C109.09 82.6156 110.149 81.6879 111.551 80.9001C111.994 80.6478 112.45 80.4188 112.917 80.2139L113.002 80.1756C113.259 80.0631 113.519 79.959 113.782 79.8631C117.332 78.57 121.232 78.6006 124.761 79.9494C128.13 81.224 132.466 82.9415 135.84 84.5497L135.867 84.5631C136.734 84.9771 137.541 85.3815 138.252 85.7707C139.673 86.5469 140.712 87.2562 141.11 87.8235C141.293 88.0842 141.496 89.2592 141.717 91.082C142.012 93.547 142.334 97.2043 142.647 101.352Z" fill="black"/>
<path id="Vector_30" d="M142.773 101.477H101.734C103.691 97.3331 108.82 86.2848 109.105 83.7297C109.215 82.7406 110.275 81.8129 111.677 81.0251C112.12 80.7728 112.576 80.5437 113.042 80.3389L113.127 80.3006C113.384 80.1881 113.644 80.084 113.907 79.9881C117.457 78.695 121.358 78.7256 124.887 80.0744C128.255 81.349 132.591 83.0665 135.966 84.6747L135.993 84.6881C136.86 85.1021 137.667 85.5065 138.377 85.8956C139.799 86.6719 140.837 87.3812 141.236 87.9485C141.419 88.2092 141.621 89.3842 141.843 91.207C142.139 93.672 142.459 97.3312 142.773 101.477Z" fill="#017DB3"/>
<path id="Vector_31" opacity="0.1" d="M136.168 81.4368C136.168 82.0259 136.152 82.6156 136.12 83.206C136.102 83.4935 136.08 83.781 136.055 84.0685C136.037 84.2755 136.016 84.4806 135.995 84.6857L135.968 84.9234C135.654 87.7104 135.074 90.4821 135.005 93.2825C135.005 93.4147 135.005 93.547 135.005 93.6793C134.991 96.3091 135.419 98.8987 135.999 101.477H112.365C112.326 100.999 112.307 100.518 112.313 100.045C112.313 99.6174 112.34 99.19 112.384 98.7607C112.748 95.2319 114.561 91.9292 114.834 88.4234L114.846 88.2624C114.863 87.9998 114.873 87.7353 114.869 87.4708C114.869 87.4478 114.869 87.4248 114.869 87.3999C114.839 86.2407 114.659 85.0902 114.335 83.9765C114.32 83.9209 114.304 83.8653 114.289 83.8098C113.959 82.705 113.573 81.6175 113.133 80.5512L113.048 80.3385C112.407 78.7437 111.733 77.1624 111.276 75.5772C110.913 74.3967 110.726 73.1698 110.72 71.9353C110.72 71.7149 110.733 71.4944 110.751 71.274C110.766 71.0938 110.787 70.9137 110.814 70.7316C110.856 70.4471 110.913 70.165 110.984 69.8863C111.369 68.3758 112.191 66.9593 112.979 65.5562C113.856 63.9941 114.691 62.4491 114.842 60.8065C114.861 60.5987 114.868 60.3901 114.863 60.1816C114.857 59.913 114.831 59.6452 114.786 59.3804C114.584 58.215 113.981 57.1665 113.486 56.0912C113.436 55.9819 113.386 55.8727 113.337 55.7615C113.337 55.7443 113.322 55.727 113.316 55.7097C112.353 53.4959 111.795 51.1344 111.207 48.7844C111.182 48.6828 111.157 48.5812 111.13 48.4816C110.986 47.9065 110.837 47.3315 110.679 46.7565C109.816 43.6206 108.587 40.4522 106.249 38.1885C103.911 35.9247 100.182 34.7785 97.2538 36.2199C94.7209 37.4754 93.3495 40.2854 92.7312 43.0302C92.1129 45.7751 92.0628 48.6407 91.2596 51.3395C91.2018 51.5363 91.1376 51.7324 91.067 51.9279C91.0323 52.0276 90.9976 52.1196 90.9629 52.2289C90.6182 53.2064 90.1925 54.1744 89.734 55.1366L89.6859 55.2382C88.222 58.3377 86.5212 61.3834 86.4673 64.4982V64.5384C86.4673 64.6228 86.4673 64.7052 86.4673 64.7895C86.4773 65.5298 86.59 66.2651 86.8024 66.9747C87.1876 68.2512 87.8849 69.3649 88.6978 70.4249C88.8583 70.6332 89.0226 70.8395 89.1909 71.044C89.9999 72.0331 90.8782 72.9914 91.6467 74.0112L91.6718 74.0438C92.2562 74.7969 92.7495 75.6159 93.1415 76.4838C93.6061 77.5709 93.8488 78.7392 93.8554 79.9206C93.8621 81.102 93.6325 82.2728 93.18 83.3651C92.9618 83.8698 92.7116 84.3602 92.4307 84.8333C91.9357 85.6844 91.3906 86.5124 90.961 87.398C90.8166 87.6951 90.6875 87.9979 90.5758 88.3046C89.6127 90.7734 89.4047 93.5048 88.6188 96.0522C88.0101 98.0081 87.063 99.8431 85.8201 101.475H60.7798C61.0706 100.058 62.5133 93.041 62.7406 91.4654C62.8774 90.507 64.4742 87.0568 67.061 84.0609C66.8434 84.2314 66.6334 84.404 66.4312 84.5765C64.7999 85.9599 63.3864 87.5791 62.2379 89.3799C62.2938 89.2074 62.3515 89.033 62.4093 88.8605C62.7618 87.8139 63.1432 86.7769 63.5304 85.7534C64.6514 82.8054 65.8996 79.7979 68.1339 77.563C69.3956 76.3017 70.9307 75.3299 72.1327 74.0131C74.2515 71.6957 75.1279 68.4851 75.1028 65.3377C75.1028 65.0119 75.0893 64.6879 75.0681 64.364C74.8389 60.9138 73.6543 57.6112 72.3715 54.3968C71.6819 52.6716 70.95 50.8584 70.9827 49.0298C70.9848 48.7733 71.0035 48.5172 71.0386 48.2631C71.5683 44.4736 75.4206 42.2041 77.734 39.1468C81.1741 34.5983 81.4245 27.8378 85.9376 24.3455C89.4047 21.662 94.2201 21.8268 98.5983 22.1182C102.67 22.3903 106.345 22.9175 110.386 23.481C114.428 24.0445 118.528 25.1026 121.77 27.581C123.864 29.1796 125.497 31.2976 126.948 33.4923C128.889 36.4327 130.586 39.6797 130.819 43.1893C130.837 43.4404 130.846 43.6896 130.846 43.9369C130.887 48.0388 129.097 52.0142 128.86 56.1334C128.851 56.325 128.843 56.5167 128.841 56.7084C128.84 56.7186 128.84 56.7289 128.841 56.7391C128.799 60.31 130.176 64.0592 132.05 67.0897C134.713 71.4084 136.137 76.37 136.168 81.4368Z" fill="black"/>
<path id="Vector_32" d="M136.168 81.4371C136.168 81.9431 136.149 82.451 136.12 82.9551C136.102 83.2427 136.08 83.5302 136.054 83.8177C136.029 84.1052 136 84.3902 135.968 84.6726C135.654 87.4596 135.074 90.2312 135.005 93.0317C135.005 93.2463 135.005 93.4629 135.005 93.6776C135.018 96.3055 135.465 98.897 136.054 101.475H112.386C112.341 100.998 112.314 100.517 112.31 100.043C112.305 99.5312 112.329 99.0192 112.382 98.5098C112.746 94.981 114.558 91.6784 114.832 88.1726C114.851 87.9158 114.865 87.6589 114.866 87.4059C114.866 87.3465 114.866 87.2851 114.866 87.2257C114.842 85.9851 114.648 84.7535 114.291 83.5647C113.96 82.46 113.575 81.3724 113.135 80.3061C112.468 78.6405 111.754 76.9863 111.276 75.3225C110.939 74.2194 110.752 73.0765 110.719 71.9241C110.714 71.6196 110.724 71.3151 110.75 71.0117C110.766 70.8315 110.787 70.6513 110.814 70.4692C110.856 70.1848 110.912 69.9027 110.983 69.6239C111.369 68.1135 112.191 66.697 112.979 65.2939C113.857 63.7298 114.697 62.1811 114.845 60.5365C114.857 60.4119 114.863 60.2854 114.866 60.1531C114.876 59.8007 114.85 59.4482 114.789 59.1008C114.587 57.9354 113.984 56.8869 113.489 55.8116C113.439 55.7024 113.389 55.5931 113.341 55.4819C112.364 53.2546 111.8 50.8816 111.211 48.5048C111.041 47.8263 110.868 47.1478 110.685 46.475C109.822 43.3391 108.593 40.1707 106.255 37.907C103.916 35.6432 100.193 34.52 97.267 35.9691C94.7341 37.2246 93.3627 40.0346 92.7444 42.7794C92.126 45.5242 92.076 48.3898 91.2728 51.0887C91.1841 51.3858 91.0801 51.6829 90.9819 51.978C90.6236 52.9882 90.1768 53.9907 89.7068 54.9874C88.2024 58.1673 86.4515 61.2955 86.4881 64.4985V64.5387C86.4981 65.279 86.6109 66.0143 86.8233 66.7238C87.2085 68.0004 87.9058 69.1141 88.7186 70.1741C88.8792 70.3823 89.0435 70.5887 89.2117 70.7932C90.0304 71.7937 90.9183 72.7617 91.6927 73.7929C92.2771 74.5461 92.7703 75.3651 93.1623 76.233C93.627 77.3201 93.8697 78.4884 93.8763 79.6698C93.8829 80.8511 93.6533 82.022 93.2009 83.1142C92.9827 83.619 92.7324 84.1094 92.4516 84.5825C91.9565 85.4335 91.4114 86.2616 90.9819 87.1471C90.8374 87.4442 90.7084 87.7471 90.5967 88.0538C89.6336 90.5226 89.4255 93.254 88.6397 95.8014C87.9989 97.8579 86.985 99.7802 85.6483 101.473H60.7217C60.7217 101.473 62.4822 92.9665 62.7326 91.2145C62.8578 90.3386 64.2081 87.381 66.4232 84.5767C66.6158 84.3199 66.8354 84.063 67.053 83.81C65.2417 85.2346 63.6718 86.9392 62.4032 88.8588L62.2318 89.1272C62.6324 87.9024 63.0735 86.6929 63.5262 85.5006C64.6472 82.5526 65.8954 79.5452 68.1298 77.3102C69.3914 76.049 70.9266 75.0772 72.1285 73.7603C74.1856 71.5043 75.0755 68.3934 75.0987 65.3265C75.0987 64.9163 75.0987 64.508 75.064 64.1017C74.8348 60.6515 73.6502 57.3489 72.3673 54.1344C71.7105 52.4822 71.019 50.7609 70.9786 49.009C70.9696 48.6713 70.9883 48.3335 71.0344 47.9988C71.566 44.2304 75.4184 41.9705 77.7317 38.9037C81.1719 34.3552 81.4223 27.5947 85.9353 24.1023C89.4024 21.4188 94.2179 21.5836 98.5961 21.875C102.668 22.1472 106.343 22.6743 110.384 23.2378C114.425 23.8014 118.532 24.8575 121.77 27.3282C123.864 28.9364 125.497 31.0449 126.947 33.2415C128.889 36.1819 130.586 39.4289 130.819 42.9385C130.842 43.272 130.851 43.6049 130.846 43.9372C130.813 47.949 129.091 51.8477 128.86 55.8844C128.845 56.1566 128.837 56.4269 128.841 56.701C128.84 56.7112 128.84 56.7215 128.841 56.7317C128.864 60.2279 130.22 63.8736 132.05 66.8273C134.759 71.2222 136.185 76.2811 136.168 81.4371Z" fill="#463A3E"/>
</g>
<defs>
<linearGradient id="paint0_linear" x1="107.262" y1="102.173" x2="107.262" y2="13.8092" gradientUnits="userSpaceOnUse">
<stop stop-color="#808080" stop-opacity="0.25"/>
<stop offset="0.54" stop-color="#808080" stop-opacity="0.12"/>
<stop offset="1" stop-color="#808080" stop-opacity="0.1"/>
</linearGradient>
<clipPath id="clip0">
<rect width="214" height="113" fill="white" transform="translate(0.355469 0.803711)"/>
</clipPath>
</defs>
</svg>
