<svg viewBox="0 0 592 80" fill="none" xmlns="http://www.w3.org/2000/svg">
<rect width="592" height="80" fill="white"/>
<g clip-path="url(#clip0)">
<path d="M45.37 21.65C41.7608 19.8662 37.7751 18.9778 33.75 19.06H19V61.13H33.75C37.7751 61.2122 41.7608 60.3238 45.37 58.54C48.6216 56.9108 51.3259 54.3664 53.15 51.22C55.0286 47.8418 55.9743 44.0245 55.89 40.16C55.9715 36.2768 55.0264 32.4408 53.15 29.04C51.3437 25.8622 48.6365 23.2906 45.37 21.65ZM43.65 50.34C41.2433 52.7533 37.83 53.96 33.41 53.96H27.41V26.17H33.41C37.83 26.17 41.2433 27.4067 43.65 29.88C46.0567 32.3533 47.2633 35.78 47.27 40.16C47.27 44.54 46.0633 47.9333 43.65 50.34Z" fill="#00AFFA"/>
<path d="M137.74 50.34L124.36 19.06H114.77V61.13H123.21V33.77L134.54 61.13H140.93L152.21 33.77V61.13H160.64V19.06H151.12L137.74 50.34Z" fill="#00AFFA"/>
<path d="M196.38 45.1C196.38 47.9533 195.637 50.1333 194.15 51.64C192.377 53.1005 190.152 53.8991 187.855 53.8991C185.558 53.8991 183.333 53.1005 181.56 51.64C180.067 50.1267 179.323 47.9467 179.33 45.1V19.1H170.89V45.1C170.787 48.2707 171.558 51.4087 173.12 54.17C174.544 56.5858 176.653 58.5243 179.18 59.74C181.858 60.9987 184.792 61.6183 187.75 61.55C190.735 61.5921 193.69 60.9525 196.39 59.68C198.958 58.4673 201.116 56.5315 202.6 54.11C204.22 51.3686 205.024 48.2224 204.92 45.04V19.04H196.42L196.38 45.1Z" fill="#00AFFA"/>
<path d="M213.92 26.17H232.73L213.92 54.62V61.13H242.61V54.02H223.69L242.61 25.57V19.06H213.92V26.17Z" fill="#00AFFA"/>
<path d="M260.27 19.06H251.83V61.13H260.27V19.06Z" fill="#00AFFA"/>
<path d="M270.64 61.13H295.05V54.26H279.08V43.11H293.24V36.42H279.08V25.87H295.05V19H270.64V61.13Z" fill="#00AFFA"/>
<path d="M338.69 19.06H328.5L313.19 37.93V19.06H304.75V61.13H313.19V42.39L328.5 61.13H339.17L321.33 39.91L338.69 19.06Z" fill="#00AFFA"/>
<path d="M355.2 19.06H346.77V61.13H369.07V54.44H355.2V19.06Z" fill="#00AFFA"/>
<path d="M376.48 61.13H400.89V54.26H384.92V43.11H399.08V36.42H384.92V25.87H400.89V19H376.48V61.13Z" fill="#00AFFA"/>
<path d="M439.17 39.44C440.756 37.2628 441.601 34.6337 441.58 31.94C441.6 29.6583 441.006 27.4132 439.86 25.44C438.651 23.4189 436.874 21.7982 434.75 20.78C432.149 19.5655 429.3 18.9765 426.43 19.06H410.6V61.13H419.03V44.74H423.03L432.32 61.13H442.08L431.99 44.07C434.857 43.4275 437.402 41.7864 439.17 39.44ZM426.09 38.44H419.03V26.05H426.09C427.939 25.9029 429.774 26.4762 431.21 27.65C431.791 28.2383 432.241 28.942 432.532 29.7155C432.823 30.489 432.949 31.315 432.9 32.14C432.948 32.9831 432.823 33.8272 432.533 34.62C432.242 35.4129 431.792 36.1378 431.21 36.75C430.511 37.3562 429.698 37.8177 428.819 38.1077C427.94 38.3978 427.013 38.5108 426.09 38.44Z" fill="#00AFFA"/>
<path d="M509.02 19L493.89 61.13H502.75L505.53 53.13H522.28L525.05 61.13H533.98L518.85 19H509.02ZM507.82 46.36L513.9 28.76L519.99 46.36H507.82Z" fill="#00AFFA"/>
<path d="M563.09 44.07C565.843 43.4748 568.304 41.9415 570.051 39.7326C571.799 37.5236 572.724 34.7761 572.67 31.96C572.698 29.671 572.104 27.4173 570.95 25.44C569.731 23.4173 567.938 21.8024 565.8 20.8C563.199 19.5844 560.35 18.9953 557.48 19.08H541.69V61.13H550.13V44.74H554.13L563.41 61.13H573.17L563.09 44.07ZM557.18 38.44H550.18V26.05H557.18C559.029 25.9019 560.864 26.4752 562.3 27.65C562.882 28.2368 563.334 28.9403 563.625 29.7141C563.917 30.488 564.041 31.3147 563.99 32.14C564.041 32.9834 563.917 33.8281 563.626 34.6213C563.335 35.4145 562.884 36.1392 562.3 36.75C561.601 37.3562 560.788 37.8177 559.909 38.1077C559.03 38.3978 558.103 38.5108 557.18 38.44Z" fill="#00AFFA"/>
<path d="M473.64 19H463.82L459.38 31.37L465.16 39.01L468.75 28.76L474.75 46.36L477.04 53.11L477.48 54.38H474.15L470.75 49.84C470.923 49.5352 471.012 49.1904 471.01 48.84C471.01 48.3096 470.799 47.8009 470.424 47.4258C470.049 47.0507 469.54 46.84 469.01 46.84C468.852 46.8446 468.694 46.8647 468.54 46.9L453.43 26.99C453.285 26.799 453.071 26.6733 452.834 26.6405C452.596 26.6077 452.356 26.6705 452.165 26.815C451.974 26.9595 451.848 27.174 451.815 27.4113C451.783 27.6485 451.845 27.889 451.99 28.08L467.09 48.08C466.94 48.3894 466.873 48.7322 466.894 49.0753C466.916 49.4184 467.025 49.7501 467.212 50.0386C467.399 50.3271 467.657 50.5625 467.962 50.7221C468.266 50.8818 468.606 50.9602 468.95 50.95C469.047 50.9549 469.143 50.9549 469.24 50.95L471.9 54.46H459.9L460.34 53.19L462.63 46.44L462.82 45.91L456.97 38.19L448.71 61.19H488.75L473.64 19Z" fill="#00AFFA"/>
<path d="M92.8207 42.9858C92.8207 44.1858 92.7407 45.2658 92.5807 46.2258H68.2807C68.4807 48.6258 69.3207 50.5058 70.8007 51.8658C72.2807 53.2258 74.1007 53.9058 76.2607 53.9058C79.3807 53.9058 81.6007 52.5658 82.9207 49.8858H91.9807C91.0207 53.0858 89.1807 55.7258 86.4607 57.8058C83.7407 59.8458 80.4007 60.8658 76.4407 60.8658C73.2407 60.8658 70.3607 60.1658 67.8007 58.7658C65.2807 57.3258 63.3007 55.3058 61.8607 52.7058C60.4607 50.1058 59.7607 47.1058 59.7607 43.7058C59.7607 40.2658 60.4607 37.2458 61.8607 34.6458C63.2607 32.0458 65.2207 30.0458 67.7407 28.6458C70.2607 27.2458 73.1607 26.5458 76.4407 26.5458C79.6007 26.5458 82.4207 27.2258 84.9007 28.5858C87.4207 29.9458 89.3607 31.8858 90.7207 34.4058C92.1207 36.8858 92.8207 39.7458 92.8207 42.9858ZM84.1207 40.5858C84.0807 38.4258 83.3007 36.7058 81.7807 35.4258C80.2607 34.1058 78.4007 33.4458 76.2007 33.4458C74.1207 33.4458 72.3607 34.0858 70.9207 35.3658C69.5207 36.6058 68.6607 38.3458 68.3407 40.5858H84.1207Z" fill="#00AFFA"/>
</g>
<defs>
<clipPath id="clip0">
<rect width="554.15" height="42.55" fill="white" transform="translate(19 19)"/>
</clipPath>
</defs>
</svg>
