<svg width="214" height="165" viewBox="0 0 214 165" fill="none" xmlns="http://www.w3.org/2000/svg">
<g id="undraw_professor_8lrt 1" clip-path="url(#clip0)">
<path id="Vector" d="M151.066 -0.000488281L184.989 18.3172C184.409 19.3128 184.036 20.4143 183.89 21.5565C183.745 22.6986 183.831 23.8583 184.144 24.9666C184.457 26.075 184.989 27.1095 185.71 28.0089C186.431 28.9083 187.326 29.6543 188.341 30.2027C189.357 30.751 190.473 31.0906 191.622 31.2012C192.772 31.3119 193.932 31.1914 195.034 30.8469C196.136 30.5024 197.157 29.9408 198.038 29.1956C198.918 28.4503 199.639 27.5365 200.159 26.5082L211.726 32.754L181.764 87.8972L121.104 55.1427L151.066 -0.000488281Z" fill="#ACD7EA"/>
<line id="Line 8" y1="-0.5" x2="11.2822" y2="-0.5" transform="matrix(4.37114e-08 1 1 -4.37114e-08 106.798 66.9702)" stroke="#00587D"/>
<line id="Line 11" y1="-0.5" x2="11.2822" y2="-0.5" transform="matrix(4.37114e-08 1 1 -4.37114e-08 86.9297 66.9712)" stroke="#00587D"/>
<line id="Line 9" y1="-0.5" x2="11.2822" y2="-0.5" transform="matrix(4.37114e-08 1 1 -4.37114e-08 94.9297 66.9702)" stroke="#00587D"/>
<line id="Line 12" y1="-0.5" x2="11.2822" y2="-0.5" transform="matrix(4.37114e-08 1 1 -4.37114e-08 75.0615 66.9712)" stroke="#00587D"/>
<line id="Line 10" y1="-0.5" x2="11.2822" y2="-0.5" transform="matrix(4.37114e-08 1 1 -4.37114e-08 90.9297 66.9702)" stroke="#00587D"/>
<line id="Line 13" y1="-0.5" x2="11.2822" y2="-0.5" transform="matrix(4.37114e-08 1 1 -4.37114e-08 71.0615 66.9712)" stroke="#00587D"/>
<path id="Vector_2" d="M185.977 106.905V35.2085H21.6322V106.905H185.977Z" stroke="#00587D" stroke-width="5"/>
<path id="Vector_3" d="M55.3434 105.87H66.9482V107.37H55.3434V105.87Z" fill="#1E99CD"/>
<path id="Vector_4" d="M100.864 74.7776C99.7955 74.7776 98.9296 73.9144 98.9296 72.8495C98.9296 71.7846 99.7955 70.9214 100.864 70.9214C101.932 70.9214 102.798 71.7846 102.798 72.8495C102.798 73.9144 101.932 74.7776 100.864 74.7776Z" fill="#007FB6"/>
<path id="Vector_5" d="M80.9956 74.7786C79.9274 74.7786 79.0614 73.9154 79.0614 72.8505C79.0614 71.7856 79.9274 70.9224 80.9956 70.9224C82.0637 70.9224 82.9297 71.7856 82.9297 72.8505C82.9297 73.9154 82.0637 74.7786 80.9956 74.7786Z" fill="#007FB6"/>
<path id="Vector_6" d="M180.632 165C162.592 165 147.967 162.314 147.967 159.001C147.967 155.688 162.592 153.002 180.632 153.002C198.673 153.002 213.298 155.688 213.298 159.001C213.298 162.314 198.673 165 180.632 165Z" fill="#3EB4E6"/>
<path id="Vector_7" d="M158.199 105.759L164.026 108.69L163.649 109.439L157.822 106.508L158.199 105.759Z" fill="#007FB6"/>
<path id="Vector_8" d="M159.146 100.307L159.408 101.873C159.408 101.873 159.015 112.704 161.895 109.312C164.775 105.919 162.811 101.351 162.811 101.351L162.026 100.046L159.146 100.307Z" fill="#FBBEBE"/>
<path id="Vector_9" d="M175.902 50.1973C175.902 50.1973 176.426 55.6781 176.687 55.9391C176.949 56.2 172.76 61.1589 172.76 61.1589L169.095 57.766C169.095 57.766 169.357 52.8072 168.572 51.7632C167.786 50.7193 175.902 50.1973 175.902 50.1973Z" fill="#FBBEBE"/>
<path id="Vector_10" opacity="0.1" d="M175.902 50.1973C175.902 50.1973 176.426 55.6781 176.687 55.9391C176.949 56.2 172.76 61.1589 172.76 61.1589L169.095 57.766C169.095 57.766 169.357 52.8072 168.572 51.7632C167.786 50.7193 175.902 50.1973 175.902 50.1973Z" fill="black"/>
<path id="Vector_11" d="M185.588 150.157V154.854L187.421 155.116L190.039 154.332L189.254 149.374L185.588 150.157Z" fill="#3F3D56"/>
<path id="Vector_12" d="M187.945 152.505C187.945 152.505 188.73 150.417 190.039 150.678C191.348 150.939 191.61 152.505 191.61 152.505C191.61 152.505 192.657 156.42 194.228 157.725C195.799 159.03 197.37 162.423 194.228 162.945C191.087 163.467 188.468 162.162 188.468 161.901C188.468 161.64 187.683 160.074 186.374 159.813C185.065 159.552 184.018 159.291 184.018 158.247C184.018 157.203 184.803 156.159 184.803 156.159C184.803 156.159 185.065 151.209 185.589 151.857C185.951 152.369 186.217 152.942 186.374 153.549L187.945 152.505Z" fill="#2F2E41"/>
<path id="Vector_13" d="M174.331 147.808L175.378 151.723L172.76 152.245L171.451 150.94L171.189 147.547L174.331 147.808Z" fill="#3F3D56"/>
<path id="Vector_14" d="M174.593 151.201C174.593 151.201 173.546 150.418 173.022 150.418H172.237C172.237 150.418 172.237 148.591 170.928 148.591C169.619 148.591 169.881 149.896 169.881 149.896C169.881 149.896 167.001 154.333 166.215 155.116C165.43 155.899 161.241 158.247 164.644 159.291C168.048 160.335 170.404 160.335 171.975 158.508C171.975 158.508 173.546 157.725 174.593 157.725C175.64 157.725 176.949 157.203 176.949 156.421C176.949 155.638 176.164 154.072 176.164 154.072C176.164 154.072 175.64 149.374 175.378 149.896C175.117 150.418 174.593 151.201 174.593 151.201Z" fill="#2F2E41"/>
<path id="Vector_15" d="M185.85 87.7803V96.3929C185.85 96.3929 188.73 113.096 188.73 118.577C188.73 124.058 193.181 150.157 191.086 150.679C188.992 151.201 184.017 151.984 183.756 151.201C183.494 150.418 181.661 125.624 181.399 125.363C181.138 125.102 175.64 104.484 175.64 104.484L174.592 104.745L174.069 128.234C174.069 128.234 176.687 149.374 175.378 149.374C174.069 149.374 168.571 149.113 168.571 147.547C168.571 145.981 165.691 117.011 165.691 117.011C165.691 117.011 162.288 94.044 163.597 91.6951C164.906 89.3462 164.906 88.0413 164.906 88.0413L185.85 87.7803Z" fill="#2F2E41"/>
<path id="Vector_16" d="M171.582 54.2428C168.69 54.2428 166.346 51.9058 166.346 49.023C166.346 46.1402 168.69 43.8032 171.582 43.8032C174.474 43.8032 176.818 46.1402 176.818 49.023C176.818 51.9058 174.474 54.2428 171.582 54.2428Z" fill="#FBBEBE"/>
<path id="Vector_17" d="M172.76 58.027C172.76 58.027 176.032 55.2866 176.294 54.2427C176.294 54.2427 177.996 55.9391 177.996 56.2001C177.996 56.4611 185.326 57.2441 187.159 59.332C188.992 61.4199 190.562 65.8567 190.562 65.8567L186.112 74.2084C186.112 74.2084 185.85 78.9062 185.85 79.4282C185.85 79.9502 187.159 88.3019 186.635 88.5628C186.112 88.8238 180.876 91.4337 176.425 90.9118C171.974 90.3898 167.524 89.6068 166.215 89.6068C164.906 89.6068 163.859 90.1288 163.859 89.6068C163.859 89.0848 164.644 88.0409 164.644 87.5189C164.644 86.9969 164.906 85.692 164.906 84.909C164.906 84.126 165.429 82.8211 165.429 81.7771C165.429 80.7331 159.67 66.6397 159.67 66.6397C159.67 66.6397 159.931 62.2029 164.12 60.1149C168.309 58.027 168.833 57.2441 168.833 57.2441C168.833 57.2441 168.914 55.6781 169.135 55.6781C169.356 55.6781 170.142 58.027 172.236 58.288L172.76 58.027Z" fill="#D0CDE1"/>
<path id="Vector_18" d="M186.897 92.7388L185.065 95.6096L180.352 94.5656L183.756 90.6509L186.897 92.7388Z" fill="#FBBEBE"/>
<path id="Vector_19" d="M161.24 64.5518L159.67 66.6397C159.67 66.6397 156.528 81.7771 157.051 87.2579C157.575 92.7387 158.099 96.9145 158.099 96.9145C158.099 96.9145 157.051 100.829 157.837 100.829C158.622 100.829 163.335 101.09 163.335 100.307C163.335 99.5244 162.811 94.5656 162.811 94.5656L164.12 83.0821L167 79.1672L161.24 64.5518Z" fill="#D0CDE1"/>
<path id="Vector_20" d="M175.138 46.4888C174.817 46.3532 174.446 46.4632 174.103 46.4054C173.699 46.3374 173.338 46.0393 172.93 46.0769C172.737 46.1126 172.549 46.1734 172.372 46.2576C172.283 46.2993 172.187 46.3226 172.088 46.3261C171.99 46.3296 171.892 46.3133 171.8 46.278C171.757 46.2578 171.718 46.2281 171.687 46.1911C171.656 46.1541 171.634 46.1108 171.622 46.0642C171.61 46.0176 171.609 45.969 171.618 45.9218C171.628 45.8746 171.647 45.8301 171.676 45.7915C171.331 45.7612 171.005 45.6213 170.746 45.3924C170.694 45.3389 170.634 45.2941 170.568 45.2597C170.492 45.2397 170.412 45.2356 170.333 45.2478C170.255 45.26 170.179 45.2881 170.112 45.3305L169.513 45.6058C169.378 45.6533 169.26 45.7379 169.171 45.8499C169.1 45.9607 169.086 46.1096 168.985 46.1944C168.856 46.3026 168.664 46.2497 168.495 46.2603C168.343 46.2751 168.201 46.3452 168.097 46.4573C167.993 46.5695 167.933 46.7159 167.93 46.8687C167.933 47.0439 167.997 47.2589 167.858 47.3662C167.777 47.4284 167.662 47.4185 167.568 47.4567C167.323 47.5558 167.322 47.8956 167.358 48.1566C167.394 48.4176 167.377 48.7619 167.125 48.8422C166.948 48.8988 166.767 48.7782 166.582 48.7513C166.305 48.7107 166.048 48.8839 165.8 49.0164C165.553 49.1489 165.225 49.2383 165.01 49.0576C164.811 48.8894 164.824 48.5816 164.879 48.327C164.957 47.962 165.087 47.6096 165.263 47.2801C165.328 47.1831 165.366 47.0707 165.374 46.9542C165.359 46.8723 165.327 46.7944 165.28 46.7257C165.232 46.657 165.171 46.5991 165.099 46.5558C164.796 46.317 164.448 46.0766 164.35 45.7042C164.278 45.4309 164.359 45.1427 164.353 44.8602C164.345 44.5164 164.208 44.1741 164.272 43.8363C164.389 43.224 165.072 42.9293 165.514 42.4878C166.12 41.8812 166.317 40.9108 167.032 40.437C167.605 40.0579 168.354 40.1032 169.006 39.8863C169.722 39.648 170.298 39.1006 171.005 38.8351C171.39 38.6933 171.802 38.6384 172.212 38.6742C172.621 38.71 173.018 38.8357 173.373 39.0422C173.583 39.198 173.819 39.3178 174.069 39.3967C174.279 39.4211 174.492 39.4186 174.702 39.3894C175.12 39.368 175.536 39.4535 175.911 39.638C176.054 39.6952 176.174 39.7996 176.25 39.934C176.376 40.214 176.192 40.6518 176.469 40.7857C176.599 40.8481 176.751 40.7883 176.895 40.7914C177.174 40.7976 177.389 41.0398 177.522 41.2847C177.625 41.5436 177.774 41.7822 177.961 41.9895C178.302 42.2875 178.923 42.3367 179.012 42.7802C179.013 42.968 179.003 43.1556 178.98 43.342C179.006 43.735 179.427 44.0337 179.405 44.4269C179.38 44.8805 178.802 45.1022 178.647 45.5295C178.53 45.855 178.685 46.2068 178.791 46.536C178.898 46.8652 178.93 47.2872 178.655 47.4979C178.547 47.5805 178.408 47.6144 178.298 47.6942C178.013 47.9006 178.017 48.3173 178.048 48.6668C178.067 48.7394 178.067 48.8153 178.049 48.8879C178.031 48.9605 177.995 49.0276 177.945 49.0833C177.898 49.1117 177.845 49.1297 177.791 49.1363C177.736 49.1428 177.681 49.1377 177.629 49.1212C177.458 49.0799 177.297 49.0041 177.156 48.8987C177.016 48.7933 176.898 48.6603 176.811 48.508C176.719 48.3568 176.701 48.2236 176.534 48.1434C176.421 48.089 176.284 48.1376 176.169 48.067C175.622 47.7311 175.81 46.7726 175.138 46.4888Z" fill="#2F2E41"/>
<path id="Vector_21" d="M189.778 65.0737L190.563 65.8567C190.563 65.8567 195.276 79.9501 193.705 83.082C192.134 86.2139 188.992 94.0436 187.945 93.7826C186.898 93.5216 183.233 91.1727 183.233 90.9117C183.233 90.6507 187.683 83.343 187.683 83.343C187.683 83.343 188.207 81.7771 187.945 81.5161C187.683 81.2551 187.683 81.5161 187.945 80.9941C188.207 80.4721 188.207 80.9941 187.683 80.4721C187.16 79.9501 187.16 79.9501 187.16 79.6892C187.16 79.4282 185.589 72.9034 185.589 72.9034L189.778 65.0737Z" fill="#D0CDE1"/>
<path id="Vector_22" d="M185.72 95.7404L179.96 93.9136L179.175 95.7404L185.458 97.0453L185.72 95.7404Z" fill="#2F2E41"/>
<path id="Vector_23" opacity="0.1" d="M185.72 95.7404L179.96 93.9136L179.175 95.7404L185.458 97.0453L185.72 95.7404Z" fill="black"/>
<path id="Vector_24" opacity="0.1" d="M177.865 56.3306L173.415 59.9844L172.891 59.2013L177.865 56.3306Z" fill="black"/>
<path id="Vector_25" opacity="0.1" d="M168.964 57.3745L172.105 59.2013L171.844 59.9843L168.964 57.3745Z" fill="black"/>
</g>
<defs>
<clipPath id="clip0">
<rect width="213" height="165" fill="white" transform="matrix(-1 0 0 1 213.298 -0.000488281)"/>
</clipPath>
</defs>
</svg>
