<svg width="17" height="12" viewBox="0 0 17 12" fill="none" xmlns="http://www.w3.org/2000/svg">
<path d="M16.4668 4.22864L15.7048 3.81407L8.84669 0.0452261H8.76286C8.71615 0.0256875 8.66767 0.0105453 8.61808 0H8.4733H8.33614C8.28407 0.0105522 8.23307 0.0256878 8.18373 0.0452261H8.09991L1.24177 3.81407C1.1245 3.87981 1.02695 3.97515 0.95909 4.09035C0.891225 4.20556 0.855469 4.33651 0.855469 4.46985C0.855469 4.60319 0.891225 4.73414 0.95909 4.84934C1.02695 4.96455 1.1245 5.05989 1.24177 5.12563L3.13919 6.16583V9.73869C3.13919 10.3384 3.38004 10.9136 3.80876 11.3377C4.23747 11.7618 4.81894 12 5.42524 12H11.5214C12.1277 12 12.7091 11.7618 13.1378 11.3377C13.5666 10.9136 13.8074 10.3384 13.8074 9.73869V6.16583L15.3314 5.32161V7.47739C15.3314 7.6773 15.4117 7.86902 15.5546 8.01038C15.6975 8.15174 15.8914 8.23116 16.0935 8.23116C16.2956 8.23116 16.4894 8.15174 16.6323 8.01038C16.7752 7.86902 16.8555 7.6773 16.8555 7.47739V4.88442C16.8552 4.75086 16.8191 4.61975 16.7508 4.50453C16.6826 4.3893 16.5845 4.29409 16.4668 4.22864ZM12.2834 9.73869C12.2834 9.93861 12.2031 10.1303 12.0602 10.2717C11.9173 10.413 11.7235 10.4925 11.5214 10.4925H5.42524C5.22314 10.4925 5.02932 10.413 4.88641 10.2717C4.7435 10.1303 4.66322 9.93861 4.66322 9.73869V7.00251L8.09991 8.88694L8.21421 8.93216H8.28279C8.34605 8.94004 8.41005 8.94004 8.4733 8.93216C8.53655 8.94004 8.60055 8.94004 8.6638 8.93216H8.73238C8.77284 8.92373 8.81151 8.90842 8.84669 8.88694L12.2834 7.00251V9.73869ZM8.4733 7.37186L3.18491 4.46231L8.4733 1.55276L13.7617 4.46231L8.4733 7.37186Z" fill="#F0F0F0"/>
</svg>
