<svg width="14" height="14" viewBox="0 0 14 14" fill="none" xmlns="http://www.w3.org/2000/svg">
<path d="M13.289 0.493271C13.2163 0.430908 13.131 0.384933 13.039 0.358473C12.947 0.332014 12.8503 0.325692 12.7556 0.339937L4.08897 1.67327C3.93114 1.69722 3.78714 1.777 3.68315 1.89811C3.57917 2.01923 3.52209 2.17364 3.5223 2.33327V9.23327C3.21081 9.08113 2.86896 9.00136 2.5223 8.99994C2.06081 8.99994 1.60968 9.13679 1.22597 9.39318C0.842254 9.64957 0.543185 10.014 0.36658 10.4403C0.189976 10.8667 0.143768 11.3359 0.2338 11.7885C0.323832 12.2411 0.546061 12.6569 0.872383 12.9832C1.19871 13.3095 1.61447 13.5317 2.06709 13.6218C2.51971 13.7118 2.98887 13.6656 3.41523 13.489C3.84159 13.3124 4.206 13.0133 4.46239 12.6296C4.71878 12.2459 4.85563 11.7948 4.85563 11.3333V6.23994L12.189 5.11327V7.89994C11.8775 7.74779 11.5356 7.66803 11.189 7.6666C10.7275 7.6666 10.2763 7.80345 9.89263 8.05984C9.50892 8.31623 9.20985 8.68065 9.03325 9.10701C8.85664 9.53337 8.81043 10.0025 8.90047 10.4551C8.9905 10.9078 9.21273 11.3235 9.53905 11.6499C9.86537 11.9762 10.2811 12.1984 10.7338 12.2884C11.1864 12.3785 11.6555 12.3323 12.0819 12.1557C12.5083 11.9791 12.8727 11.68 13.1291 11.2963C13.3855 10.9126 13.5223 10.4614 13.5223 9.99994V0.999937C13.5223 0.903644 13.5015 0.808491 13.4612 0.721027C13.4209 0.633562 13.3621 0.555862 13.289 0.493271ZM2.5223 12.3333C2.32452 12.3333 2.13118 12.2746 1.96673 12.1647C1.80228 12.0549 1.67411 11.8987 1.59842 11.716C1.52273 11.5332 1.50293 11.3322 1.54151 11.1382C1.5801 10.9442 1.67534 10.766 1.81519 10.6262C1.95504 10.4863 2.13323 10.3911 2.32721 10.3525C2.52119 10.3139 2.72226 10.3337 2.90498 10.4094C3.08771 10.4851 3.24389 10.6133 3.35377 10.7777C3.46365 10.9422 3.5223 11.1355 3.5223 11.3333C3.5223 11.5985 3.41694 11.8528 3.22941 12.0404C3.04187 12.2279 2.78752 12.3333 2.5223 12.3333ZM11.189 10.9999C10.9912 10.9999 10.7978 10.9413 10.6334 10.8314C10.4689 10.7215 10.3408 10.5653 10.2651 10.3826C10.1894 10.1999 10.1696 9.99883 10.2082 9.80485C10.2468 9.61087 10.342 9.43268 10.4819 9.29283C10.6217 9.15298 10.7999 9.05774 10.9939 9.01915C11.1879 8.98057 11.3889 9.00037 11.5716 9.07606C11.7544 9.15175 11.9106 9.27992 12.0204 9.44437C12.1303 9.60882 12.189 9.80216 12.189 9.99994C12.189 10.2652 12.0836 10.5195 11.8961 10.707C11.7085 10.8946 11.4542 10.9999 11.189 10.9999ZM12.189 3.75994L4.85563 4.8866V2.8866L12.189 1.77994V3.75994Z" fill="#F0F0F0"/>
</svg>
