<svg width="14" height="14" viewBox="0 0 14 14" fill="none" xmlns="http://www.w3.org/2000/svg">
<path d="M12.189 5.44662V5.33328C12.1931 4.19924 11.8332 3.09381 11.1625 2.17942C10.4917 1.26504 9.54527 0.589922 8.46234 0.253282H8.42234C7.86303 0.0827708 7.28028 0.00177066 6.69568 0.013282C5.30356 0.0896769 3.99307 0.694448 3.03167 1.70417C2.07027 2.71388 1.53044 4.05243 1.52234 5.44662C1.13168 5.58404 0.793315 5.83935 0.553953 6.17729C0.31459 6.51524 0.186035 6.91916 0.186035 7.33328C0.186035 7.74741 0.31459 8.15132 0.553953 8.48927C0.793315 8.82721 1.13168 9.08252 1.52234 9.21995C1.65965 10.5365 2.28162 11.7549 3.26733 12.6383C4.25303 13.5218 5.53203 14.0071 6.85567 13.9999H7.00901C8.28898 13.938 9.50561 13.4245 10.4429 12.5507C11.3802 11.6768 11.9776 10.4991 12.129 9.22662C12.5243 9.09696 12.8693 8.84729 13.116 8.51236C13.3627 8.17743 13.4988 7.77391 13.5054 7.35799C13.512 6.94206 13.3887 6.53443 13.1528 6.19183C12.9168 5.84924 12.58 5.58875 12.189 5.44662ZM6.97568 12.6666C6.01061 12.6945 5.06801 12.3725 4.32181 11.7598C3.57561 11.1472 3.07618 10.2853 2.91567 9.33328H10.7623C10.5996 10.2345 10.137 11.0543 9.44956 11.6595C8.76213 12.2646 7.8903 12.6195 6.97568 12.6666ZM11.5223 7.99995H2.18901C2.0122 7.99995 1.84263 7.92971 1.7176 7.80469C1.59258 7.67966 1.52234 7.51009 1.52234 7.33328C1.52234 7.15647 1.59258 6.9869 1.7176 6.86188C1.84263 6.73685 2.0122 6.66662 2.18901 6.66662H3.52234C3.69915 6.66662 3.86872 6.59638 3.99375 6.47135C4.11877 6.34633 4.18901 6.17676 4.18901 5.99995C4.18901 5.82314 4.11877 5.65357 3.99375 5.52854C3.86872 5.40352 3.69915 5.33328 3.52234 5.33328H2.85567C2.88552 4.64169 3.08318 3.96774 3.43162 3.36959C3.78006 2.77144 4.2688 2.26706 4.85567 1.89995V3.99995C4.85567 4.17676 4.92591 4.34633 5.05094 4.47135C5.17596 4.59638 5.34553 4.66662 5.52234 4.66662C5.69915 4.66662 5.86872 4.59638 5.99375 4.47135C6.11877 4.34633 6.18901 4.17676 6.18901 3.99995V1.39328C6.36996 1.36305 6.55247 1.34302 6.73567 1.33328H6.85567C7.07909 1.33643 7.30195 1.35649 7.52234 1.39328V3.99995C7.52234 4.17676 7.59258 4.34633 7.7176 4.47135C7.84263 4.59638 8.0122 4.66662 8.18901 4.66662C8.36582 4.66662 8.53539 4.59638 8.66041 4.47135C8.78544 4.34633 8.85567 4.17676 8.85567 3.99995V1.87995C9.13847 2.0437 9.4023 2.23821 9.64234 2.45995C10.0267 2.83321 10.3322 3.2799 10.5406 3.77348C10.749 4.26707 10.8562 4.79749 10.8557 5.33328H10.189C10.0122 5.33328 9.84263 5.40352 9.7176 5.52854C9.59258 5.65357 9.52234 5.82314 9.52234 5.99995C9.52234 6.17676 9.59258 6.34633 9.7176 6.47135C9.84263 6.59638 10.0122 6.66662 10.189 6.66662H11.5223C11.6992 6.66662 11.8687 6.73685 11.9937 6.86188C12.1188 6.9869 12.189 7.15647 12.189 7.33328C12.189 7.51009 12.1188 7.67966 11.9937 7.80469C11.8687 7.92971 11.6992 7.99995 11.5223 7.99995Z" fill="#F0F0F0"/>
</svg>
