<svg width="14" height="14" viewBox="0 0 14 14" fill="none" xmlns="http://www.w3.org/2000/svg">
<path d="M5.12896 7.66659H6.7423C6.83004 7.66709 6.91701 7.65028 6.99824 7.6171C7.07946 7.58392 7.15334 7.53504 7.21563 7.47325L9.6023 5.08659C9.72647 4.96168 9.79616 4.79271 9.79616 4.61659C9.79616 4.44046 9.72647 4.27149 9.6023 4.14659L7.98897 2.54659C7.86406 2.42242 7.69509 2.35272 7.51896 2.35272C7.34284 2.35272 7.17387 2.42242 7.04896 2.54659L4.6623 4.93325C4.53669 5.05634 4.4648 5.22407 4.4623 5.39992V6.99992C4.4623 7.17673 4.53254 7.3463 4.65756 7.47132C4.78258 7.59635 4.95215 7.66659 5.12896 7.66659ZM5.79563 5.66659L7.5223 3.95992L8.18896 4.62659L6.46897 6.33325H5.8023L5.79563 5.66659ZM12.8556 8.33325H12.189V1.66659H12.8556C13.0324 1.66659 13.202 1.59635 13.327 1.47132C13.4521 1.3463 13.5223 1.17673 13.5223 0.999919C13.5223 0.823108 13.4521 0.653538 13.327 0.528514C13.202 0.40349 13.0324 0.333252 12.8556 0.333252H0.855632C0.678821 0.333252 0.509251 0.40349 0.384227 0.528514C0.259203 0.653538 0.188965 0.823108 0.188965 0.999919C0.188965 1.17673 0.259203 1.3463 0.384227 1.47132C0.509251 1.59635 0.678821 1.66659 0.855632 1.66659H1.5223V8.33325H0.855632C0.678821 8.33325 0.509251 8.40349 0.384227 8.52851C0.259203 8.65354 0.188965 8.82311 0.188965 8.99992C0.188965 9.17673 0.259203 9.3463 0.384227 9.47132C0.509251 9.59635 0.678821 9.66659 0.855632 9.66659H6.18896V10.4333L3.15563 12.4333C3.03119 12.5103 2.93555 12.6261 2.88348 12.7629C2.8314 12.8997 2.82579 13.0498 2.86749 13.1901C2.9092 13.3304 2.99591 13.453 3.11425 13.5392C3.23259 13.6253 3.37598 13.67 3.5223 13.6666C3.65337 13.6681 3.7816 13.6284 3.88897 13.5533L6.18896 12.0333V12.9999C6.18896 13.1767 6.2592 13.3463 6.38423 13.4713C6.50925 13.5963 6.67882 13.6666 6.85563 13.6666C7.03244 13.6666 7.20201 13.5963 7.32704 13.4713C7.45206 13.3463 7.5223 13.1767 7.5223 12.9999V12.0333L9.8223 13.5533C9.92966 13.6284 10.0579 13.6681 10.189 13.6666C10.3314 13.6655 10.4697 13.6188 10.5837 13.5334C10.6977 13.4479 10.7813 13.3282 10.8223 13.1918C10.8633 13.0554 10.8595 12.9095 10.8115 12.7754C10.7635 12.6412 10.6739 12.526 10.5556 12.4466L7.5223 10.4466V9.66659H12.8556C13.0324 9.66659 13.202 9.59635 13.327 9.47132C13.4521 9.3463 13.5223 9.17673 13.5223 8.99992C13.5223 8.82311 13.4521 8.65354 13.327 8.52851C13.202 8.40349 13.0324 8.33325 12.8556 8.33325ZM10.8556 8.33325H2.85563V1.66659H10.8556V8.33325Z" fill="#F0F0F0"/>
</svg>
